REM DIRINDEX 1\2\4\8,1\2\4\9,1\2\4\10,1\2\5\11,1\2\5\12,1\2\5\13,1\2\5\14,1\2\5\15,1\3\6\16,1\3\6\17,1\3\6\18,1\3\7\19,1\3\7\20,1\3\7\21,1\3\7\22,1\3\7\23
REM DIRNAME "folder01","folder02","folder03","folder04","folder05","folder06","folder07","folder08","folder09","folder10","folder11","folder12","folder13","folder14","folder15","folder16","folder17","folder18","folder19","folder20","folder21","folder22","folder23"
TITLE ""
FILE "LR_black_phrase_04.mp3" MP3
  TRACK 01 AUDIO
    TITLE "0:"
    INDEX 01 00:00:00
  TRACK 02 AUDIO
    TITLE "11:cjc171_04501"
    INDEX 01 00:00:12
  TRACK 03 AUDIO
    TITLE "0:"
    INDEX 01 00:01:20
  TRACK 04 AUDIO
    TITLE "12:cjc171_04502"
    INDEX 01 00:01:59
  TRACK 05 AUDIO
    TITLE "0:"
    INDEX 01 00:03:07
  TRACK 06 AUDIO
    TITLE "13:cjc171_04503"
    INDEX 01 00:04:08
  TRACK 07 AUDIO
    TITLE "0:"
    INDEX 01 00:06:32
  TRACK 08 AUDIO
    TITLE "14:cjc171_04504"
    INDEX 01 00:06:72
  TRACK 09 AUDIO
    TITLE "0:"
    INDEX 01 00:09:46
  TRACK 10 AUDIO
    TITLE "15:cjc171_04505"
    INDEX 01 00:10:03
  TRACK 11 AUDIO
    TITLE "0:"
    INDEX 01 00:12:51
  TRACK 12 AUDIO
    TITLE "11:cjc171_04506"
    INDEX 01 00:13:58
  TRACK 13 AUDIO
    TITLE "0:"
    INDEX 01 00:15:02
  TRACK 14 AUDIO
    TITLE "12:cjc171_04507"
    INDEX 01 00:15:39
  TRACK 15 AUDIO
    TITLE "0:"
    INDEX 01 00:18:16
  TRACK 16 AUDIO
    TITLE "13:cjc171_04508"
    INDEX 01 00:19:15
  TRACK 17 AUDIO
    TITLE "0:"
    INDEX 01 00:21:42
  TRACK 18 AUDIO
    TITLE "14:cjc171_04509"
    INDEX 01 00:22:04
  TRACK 19 AUDIO
    TITLE "0:"
    INDEX 01 00:24:34
  TRACK 20 AUDIO
    TITLE "15:cjc171_04510"
    INDEX 01 00:24:64
  TRACK 21 AUDIO
    TITLE "0:"
    INDEX 01 00:27:19
  TRACK 22 AUDIO
    TITLE "11:cjc171_04511"
    INDEX 01 00:28:28
  TRACK 23 AUDIO
    TITLE "0:"
    INDEX 01 00:29:45
  TRACK 24 AUDIO
    TITLE "12:cjc171_04512"
    INDEX 01 00:30:09
  TRACK 25 AUDIO
    TITLE "0:"
    INDEX 01 00:34:05
  TRACK 26 AUDIO
    TITLE "13:cjc171_04513"
    INDEX 01 00:34:74
  TRACK 27 AUDIO
    TITLE "0:"
    INDEX 01 00:37:58
  TRACK 28 AUDIO
    TITLE "14:cjc171_04514"
    INDEX 01 00:38:25
  TRACK 29 AUDIO
    TITLE "0:"
    INDEX 01 00:41:03
  TRACK 30 AUDIO
    TITLE "15:cjc171_04515"
    INDEX 01 00:41:35
  TRACK 31 AUDIO
    TITLE "0:"
    INDEX 01 00:44:13
  TRACK 32 AUDIO
    TITLE "11:cjc171_04516"
    INDEX 01 00:45:17
  TRACK 33 AUDIO
    TITLE "0:"
    INDEX 01 00:46:40
  TRACK 34 AUDIO
    TITLE "12:cjc171_04517"
    INDEX 01 00:47:06
  TRACK 35 AUDIO
    TITLE "0:"
    INDEX 01 00:48:52
  TRACK 36 AUDIO
    TITLE "13:cjc171_04518"
    INDEX 01 00:49:52
  TRACK 37 AUDIO
    TITLE "0:"
    INDEX 01 00:51:55
  TRACK 38 AUDIO
    TITLE "14:cjc171_04519"
    INDEX 01 00:52:19
  TRACK 39 AUDIO
    TITLE "0:"
    INDEX 01 00:54:51
  TRACK 40 AUDIO
    TITLE "15:cjc171_04520"
    INDEX 01 00:55:05
  TRACK 41 AUDIO
    TITLE "0:"
    INDEX 01 00:57:36
  TRACK 42 AUDIO
    TITLE "11:cjc171_04521"
    INDEX 01 00:58:39
  TRACK 43 AUDIO
    TITLE "0:"
    INDEX 01 00:59:72
  TRACK 44 AUDIO
    TITLE "12:cjc171_04522"
    INDEX 01 01:00:38
  TRACK 45 AUDIO
    TITLE "0:"
    INDEX 01 01:02:74
  TRACK 46 AUDIO
    TITLE "13:cjc171_04523"
    INDEX 01 01:03:72
  TRACK 47 AUDIO
    TITLE "0:"
    INDEX 01 01:06:72
  TRACK 48 AUDIO
    TITLE "14:cjc171_04524"
    INDEX 01 01:07:40
  TRACK 49 AUDIO
    TITLE "0:"
    INDEX 01 01:10:15
  TRACK 50 AUDIO
    TITLE "15:cjc171_04525"
    INDEX 01 01:10:44
  TRACK 51 AUDIO
    TITLE "0:"
    INDEX 01 01:13:21
  TRACK 52 AUDIO
    TITLE "11:cjc171_04526"
    INDEX 01 01:14:26
  TRACK 53 AUDIO
    TITLE "0:"
    INDEX 01 01:15:47
  TRACK 54 AUDIO
    TITLE "12:cjc171_04527"
    INDEX 01 01:16:12
  TRACK 55 AUDIO
    TITLE "0:"
    INDEX 01 01:18:48
  TRACK 56 AUDIO
    TITLE "13:cjc171_04528"
    INDEX 01 01:19:45
  TRACK 57 AUDIO
    TITLE "0:"
    INDEX 01 01:21:15
  TRACK 58 AUDIO
    TITLE "14:cjc171_04529"
    INDEX 01 01:21:56
  TRACK 59 AUDIO
    TITLE "0:"
    INDEX 01 01:23:64
  TRACK 60 AUDIO
    TITLE "15:cjc171_04530"
    INDEX 01 01:24:21
  TRACK 61 AUDIO
    TITLE "0:"
    INDEX 01 01:26:30
  TRACK 62 AUDIO
    TITLE "11:cjc171_04531"
    INDEX 01 01:27:35
  TRACK 63 AUDIO
    TITLE "0:"
    INDEX 01 01:28:56
  TRACK 64 AUDIO
    TITLE "12:cjc171_04532"
    INDEX 01 01:29:14
  TRACK 65 AUDIO
    TITLE "0:"
    INDEX 01 01:31:25
  TRACK 66 AUDIO
    TITLE "13:cjc171_04533"
    INDEX 01 01:32:24
  TRACK 67 AUDIO
    TITLE "0:"
    INDEX 01 01:34:00
  TRACK 68 AUDIO
    TITLE "14:cjc171_04534"
    INDEX 01 01:34:41
  TRACK 69 AUDIO
    TITLE "0:"
    INDEX 01 01:36:48
  TRACK 70 AUDIO
    TITLE "15:cjc171_04535"
    INDEX 01 01:37:04
  TRACK 71 AUDIO
    TITLE "0:"
    INDEX 01 01:39:09
  TRACK 72 AUDIO
    TITLE "11:cjc171_04536"
    INDEX 01 01:40:14
  TRACK 73 AUDIO
    TITLE "0:"
    INDEX 01 01:41:49
  TRACK 74 AUDIO
    TITLE "12:cjc171_04537"
    INDEX 01 01:42:13
  TRACK 75 AUDIO
    TITLE "0:"
    INDEX 01 01:43:34
  TRACK 76 AUDIO
    TITLE "13:cjc171_04538"
    INDEX 01 01:44:31
  TRACK 77 AUDIO
    TITLE "0:"
    INDEX 01 01:46:15
  TRACK 78 AUDIO
    TITLE "14:cjc171_04539"
    INDEX 01 01:46:58
  TRACK 79 AUDIO
    TITLE "0:"
    INDEX 01 01:48:60
  TRACK 80 AUDIO
    TITLE "15:cjc171_04540"
    INDEX 01 01:49:13
  TRACK 81 AUDIO
    TITLE "0:"
    INDEX 01 01:51:16
  TRACK 82 AUDIO
    TITLE "11:cjc171_04541"
    INDEX 01 01:52:17
  TRACK 83 AUDIO
    TITLE "0:"
    INDEX 01 01:53:28
  TRACK 84 AUDIO
    TITLE "12:cjc171_04542"
    INDEX 01 01:53:68
  TRACK 85 AUDIO
    TITLE "0:"
    INDEX 01 01:56:42
  TRACK 86 AUDIO
    TITLE "13:cjc171_04543"
    INDEX 01 01:57:42
  TRACK 87 AUDIO
    TITLE "0:"
    INDEX 01 02:00:15
  TRACK 88 AUDIO
    TITLE "14:cjc171_04544"
    INDEX 01 02:00:52
  TRACK 89 AUDIO
    TITLE "0:"
    INDEX 01 02:03:44
  TRACK 90 AUDIO
    TITLE "15:cjc171_04545"
    INDEX 01 02:03:72
  TRACK 91 AUDIO
    TITLE "0:"
    INDEX 01 02:06:64
  TRACK 92 AUDIO
    TITLE "11:cjc171_04546"
    INDEX 01 02:07:68
  TRACK 93 AUDIO
    TITLE "0:"
    INDEX 01 02:09:04
  TRACK 94 AUDIO
    TITLE "12:cjc171_04547"
    INDEX 01 02:09:41
  TRACK 95 AUDIO
    TITLE "0:"
    INDEX 01 02:12:30
  TRACK 96 AUDIO
    TITLE "13:cjc171_04548"
    INDEX 01 02:13:27
  TRACK 97 AUDIO
    TITLE "0:"
    INDEX 01 02:15:40
  TRACK 98 AUDIO
    TITLE "14:cjc171_04549"
    INDEX 01 02:16:04
  TRACK 99 AUDIO
    TITLE "0:"
    INDEX 01 02:18:19
  TRACK 100 AUDIO
    TITLE "15:cjc171_04550"
    INDEX 01 02:18:48
  TRACK 101 AUDIO
    TITLE "0:"
    INDEX 01 02:20:61
  TRACK 102 AUDIO
    TITLE "11:cjc171_04551"
    INDEX 01 02:21:56
  TRACK 103 AUDIO
    TITLE "0:"
    INDEX 01 02:23:28
  TRACK 104 AUDIO
    TITLE "12:cjc171_04552"
    INDEX 01 02:23:59
  TRACK 105 AUDIO
    TITLE "0:"
    INDEX 01 02:25:46
  TRACK 106 AUDIO
    TITLE "13:cjc171_04553"
    INDEX 01 02:26:43
  TRACK 107 AUDIO
    TITLE "0:"
    INDEX 01 02:29:57
  TRACK 108 AUDIO
    TITLE "14:cjc171_04554"
    INDEX 01 02:30:18
  TRACK 109 AUDIO
    TITLE "0:"
    INDEX 01 02:32:68
  TRACK 110 AUDIO
    TITLE "15:cjc171_04555"
    INDEX 01 02:33:12
  TRACK 111 AUDIO
    TITLE "0:"
    INDEX 01 02:35:62
  TRACK 112 AUDIO
    TITLE "11:cjc171_04556"
    INDEX 01 02:36:58
  TRACK 113 AUDIO
    TITLE "0:"
    INDEX 01 02:38:00
  TRACK 114 AUDIO
    TITLE "12:cjc171_04557"
    INDEX 01 02:38:37
  TRACK 115 AUDIO
    TITLE "0:"
    INDEX 01 02:40:04
  TRACK 116 AUDIO
    TITLE "13:cjc171_04558"
    INDEX 01 02:41:04
  TRACK 117 AUDIO
    TITLE "0:"
    INDEX 01 02:43:42
  TRACK 118 AUDIO
    TITLE "14:cjc171_04559"
    INDEX 01 02:44:00
  TRACK 119 AUDIO
    TITLE "0:"
    INDEX 01 02:46:46
  TRACK 120 AUDIO
    TITLE "15:cjc171_04560"
    INDEX 01 02:46:68
  TRACK 121 AUDIO
    TITLE "0:"
    INDEX 01 02:49:39
  TRACK 122 AUDIO
    TITLE "11:cjc171_04561"
    INDEX 01 02:50:36
  TRACK 123 AUDIO
    TITLE "0:"
    INDEX 01 02:51:59
  TRACK 124 AUDIO
    TITLE "12:cjc171_04562"
    INDEX 01 02:52:25
  TRACK 125 AUDIO
    TITLE "0:"
    INDEX 01 02:53:44
  TRACK 126 AUDIO
    TITLE "13:cjc171_04563"
    INDEX 01 02:54:44
  TRACK 127 AUDIO
    TITLE "0:"
    INDEX 01 02:56:25
  TRACK 128 AUDIO
    TITLE "14:cjc171_04564"
    INDEX 01 02:56:62
  TRACK 129 AUDIO
    TITLE "0:"
    INDEX 01 02:58:59
  TRACK 130 AUDIO
    TITLE "15:cjc171_04565"
    INDEX 01 02:59:06
  TRACK 131 AUDIO
    TITLE "0:"
    INDEX 01 03:01:05
  TRACK 132 AUDIO
    TITLE "11:cjc171_04566"
    INDEX 01 03:02:00
  TRACK 133 AUDIO
    TITLE "0:"
    INDEX 01 03:03:02
  TRACK 134 AUDIO
    TITLE "12:cjc171_04567"
    INDEX 01 03:03:41
  TRACK 135 AUDIO
    TITLE "0:"
    INDEX 01 03:06:08
  TRACK 136 AUDIO
    TITLE "13:cjc171_04568"
    INDEX 01 03:07:07
  TRACK 137 AUDIO
    TITLE "0:"
    INDEX 01 03:09:39
  TRACK 138 AUDIO
    TITLE "14:cjc171_04569"
    INDEX 01 03:10:06
  TRACK 139 AUDIO
    TITLE "0:"
    INDEX 01 03:12:28
  TRACK 140 AUDIO
    TITLE "15:cjc171_04570"
    INDEX 01 03:12:51
  TRACK 141 AUDIO
    TITLE "0:"
    INDEX 01 03:15:01
  TRACK 142 AUDIO
    TITLE "11:cjc171_04571"
    INDEX 01 03:15:73
  TRACK 143 AUDIO
    TITLE "0:"
    INDEX 01 03:17:10
  TRACK 144 AUDIO
    TITLE "12:cjc171_04572"
    INDEX 01 03:17:45
  TRACK 145 AUDIO
    TITLE "0:"
    INDEX 01 03:21:17
  TRACK 146 AUDIO
    TITLE "13:cjc171_04573"
    INDEX 01 03:22:15
  TRACK 147 AUDIO
    TITLE "0:"
    INDEX 01 03:25:42
  TRACK 148 AUDIO
    TITLE "14:cjc171_04574"
    INDEX 01 03:26:01
  TRACK 149 AUDIO
    TITLE "0:"
    INDEX 01 03:29:11
  TRACK 150 AUDIO
    TITLE "15:cjc171_04575"
    INDEX 01 03:29:32
  TRACK 151 AUDIO
    TITLE "0:"
    INDEX 01 03:32:44
  TRACK 152 AUDIO
    TITLE "11:cjc171_04576"
    INDEX 01 03:33:40
  TRACK 153 AUDIO
    TITLE "0:"
    INDEX 01 03:34:55
  TRACK 154 AUDIO
    TITLE "12:cjc171_04577"
    INDEX 01 03:35:15
  TRACK 155 AUDIO
    TITLE "0:"
    INDEX 01 03:37:16
  TRACK 156 AUDIO
    TITLE "13:cjc171_04578"
    INDEX 01 03:38:18
  TRACK 157 AUDIO
    TITLE "0:"
    INDEX 01 03:40:46
  TRACK 158 AUDIO
    TITLE "14:cjc171_04579"
    INDEX 01 03:41:08
  TRACK 159 AUDIO
    TITLE "0:"
    INDEX 01 03:43:32
  TRACK 160 AUDIO
    TITLE "15:cjc171_04580"
    INDEX 01 03:43:58
  TRACK 161 AUDIO
    TITLE "0:"
    INDEX 01 03:46:09
  TRACK 162 AUDIO
    TITLE "11:cjc171_04581"
    INDEX 01 03:47:05
  TRACK 163 AUDIO
    TITLE "0:"
    INDEX 01 03:48:18
  TRACK 164 AUDIO
    TITLE "12:cjc171_04582"
    INDEX 01 03:48:53
  TRACK 165 AUDIO
    TITLE "0:"
    INDEX 01 03:49:70
  TRACK 166 AUDIO
    TITLE "13:cjc171_04583"
    INDEX 01 03:50:68
  TRACK 167 AUDIO
    TITLE "0:"
    INDEX 01 03:53:29
  TRACK 168 AUDIO
    TITLE "14:cjc171_04584"
    INDEX 01 03:53:62
  TRACK 169 AUDIO
    TITLE "0:"
    INDEX 01 03:55:59
  TRACK 170 AUDIO
    TITLE "15:cjc171_04585"
    INDEX 01 03:56:06
  TRACK 171 AUDIO
    TITLE "0:"
    INDEX 01 03:58:03
  TRACK 172 AUDIO
    TITLE "11:cjc171_04586"
    INDEX 01 03:58:71
  TRACK 173 AUDIO
    TITLE "0:"
    INDEX 01 04:00:27
  TRACK 174 AUDIO
    TITLE "12:cjc171_04587"
    INDEX 01 04:00:64
  TRACK 175 AUDIO
    TITLE "0:"
    INDEX 01 04:04:15
  TRACK 176 AUDIO
    TITLE "13:cjc171_04588"
    INDEX 01 04:05:14
  TRACK 177 AUDIO
    TITLE "0:"
    INDEX 01 04:07:62
  TRACK 178 AUDIO
    TITLE "14:cjc171_04589"
    INDEX 01 04:08:28
  TRACK 179 AUDIO
    TITLE "0:"
    INDEX 01 04:10:33
  TRACK 180 AUDIO
    TITLE "15:cjc171_04590"
    INDEX 01 04:10:61
  TRACK 181 AUDIO
    TITLE "0:"
    INDEX 01 04:12:63
  TRACK 182 AUDIO
    TITLE "11:cjc171_04591"
    INDEX 01 04:13:57
  TRACK 183 AUDIO
    TITLE "0:"
    INDEX 01 04:14:54
  TRACK 184 AUDIO
    TITLE "12:cjc171_04592"
    INDEX 01 04:15:15
  TRACK 185 AUDIO
    TITLE "0:"
    INDEX 01 04:16:18
  TRACK 186 AUDIO
    TITLE "13:cjc171_04593"
    INDEX 01 04:17:14
  TRACK 187 AUDIO
    TITLE "0:"
    INDEX 01 04:19:09
  TRACK 188 AUDIO
    TITLE "14:cjc171_04594"
    INDEX 01 04:19:42
  TRACK 189 AUDIO
    TITLE "0:"
    INDEX 01 04:21:49
  TRACK 190 AUDIO
    TITLE "15:cjc171_04595"
    INDEX 01 04:21:70
  TRACK 191 AUDIO
    TITLE "0:"
    INDEX 01 04:24:02
  TRACK 192 AUDIO
    TITLE "11:cjc171_04596"
    INDEX 01 04:24:72
  TRACK 193 AUDIO
    TITLE "0:"
    INDEX 01 04:26:13
  TRACK 194 AUDIO
    TITLE "12:cjc171_04597"
    INDEX 01 04:26:48
  TRACK 195 AUDIO
    TITLE "0:"
    INDEX 01 04:29:46
  TRACK 196 AUDIO
    TITLE "13:cjc171_04598"
    INDEX 01 04:30:46
  TRACK 197 AUDIO
    TITLE "0:"
    INDEX 01 04:32:66
  TRACK 198 AUDIO
    TITLE "14:cjc171_04599"
    INDEX 01 04:33:22
  TRACK 199 AUDIO
    TITLE "0:"
    INDEX 01 04:35:43
  TRACK 200 AUDIO
    TITLE "15:cjc171_04600"
    INDEX 01 04:35:63
  TRACK 201 AUDIO
    TITLE "0:"
    INDEX 01 04:38:08
  TRACK 202 AUDIO
    TITLE "11:cjc171_04601"
    INDEX 01 04:39:07
  TRACK 203 AUDIO
    TITLE "0:"
    INDEX 01 04:40:26
  TRACK 204 AUDIO
    TITLE "12:cjc171_04602"
    INDEX 01 04:40:68
  TRACK 205 AUDIO
    TITLE "0:"
    INDEX 01 04:43:21
  TRACK 206 AUDIO
    TITLE "13:cjc171_04603"
    INDEX 01 04:44:20
  TRACK 207 AUDIO
    TITLE "0:"
    INDEX 01 04:46:23
  TRACK 208 AUDIO
    TITLE "14:cjc171_04604"
    INDEX 01 04:46:64
  TRACK 209 AUDIO
    TITLE "0:"
    INDEX 01 04:49:59
  TRACK 210 AUDIO
    TITLE "15:cjc171_04605"
    INDEX 01 04:50:15
  TRACK 211 AUDIO
    TITLE "0:"
    INDEX 01 04:53:08
  TRACK 212 AUDIO
    TITLE "11:cjc171_04606"
    INDEX 01 04:54:15
  TRACK 213 AUDIO
    TITLE "0:"
    INDEX 01 04:55:34
  TRACK 214 AUDIO
    TITLE "12:cjc171_04607"
    INDEX 01 04:56:02
  TRACK 215 AUDIO
    TITLE "0:"
    INDEX 01 04:57:21
  TRACK 216 AUDIO
    TITLE "13:cjc171_04608"
    INDEX 01 04:58:19
  TRACK 217 AUDIO
    TITLE "0:"
    INDEX 01 05:00:74
  TRACK 218 AUDIO
    TITLE "14:cjc171_04609"
    INDEX 01 05:01:40
  TRACK 219 AUDIO
    TITLE "0:"
    INDEX 01 05:04:05
  TRACK 220 AUDIO
    TITLE "15:cjc171_04610"
    INDEX 01 05:04:35
  TRACK 221 AUDIO
    TITLE "0:"
    INDEX 01 05:07:00
  TRACK 222 AUDIO
    TITLE "11:cjc171_04611"
    INDEX 01 05:08:05
  TRACK 223 AUDIO
    TITLE "0:"
    INDEX 01 05:09:32
  TRACK 224 AUDIO
    TITLE "12:cjc171_04612"
    INDEX 01 05:09:69
  TRACK 225 AUDIO
    TITLE "0:"
    INDEX 01 05:12:44
  TRACK 226 AUDIO
    TITLE "13:cjc171_04613"
    INDEX 01 05:13:42
  TRACK 227 AUDIO
    TITLE "0:"
    INDEX 01 05:15:46
  TRACK 228 AUDIO
    TITLE "14:cjc171_04614"
    INDEX 01 05:16:09
  TRACK 229 AUDIO
    TITLE "0:"
    INDEX 01 05:18:07
  TRACK 230 AUDIO
    TITLE "15:cjc171_04615"
    INDEX 01 05:18:33
  TRACK 231 AUDIO
    TITLE "0:"
    INDEX 01 05:20:32
  TRACK 232 AUDIO
    TITLE "11:cjc171_04616"
    INDEX 01 05:21:37
  TRACK 233 AUDIO
    TITLE "0:"
    INDEX 01 05:22:68
  TRACK 234 AUDIO
    TITLE "12:cjc171_04617"
    INDEX 01 05:23:32
  TRACK 235 AUDIO
    TITLE "0:"
    INDEX 01 05:25:19
  TRACK 236 AUDIO
    TITLE "13:cjc171_04618"
    INDEX 01 05:26:19
  TRACK 237 AUDIO
    TITLE "0:"
    INDEX 01 05:28:59
  TRACK 238 AUDIO
    TITLE "14:cjc171_04619"
    INDEX 01 05:29:25
  TRACK 239 AUDIO
    TITLE "0:"
    INDEX 01 05:31:69
  TRACK 240 AUDIO
    TITLE "15:cjc171_04620"
    INDEX 01 05:32:27
  TRACK 241 AUDIO
    TITLE "0:"
    INDEX 01 05:34:69
  TRACK 242 AUDIO
    TITLE "11:cjc171_04621"
    INDEX 01 05:36:00
  TRACK 243 AUDIO
    TITLE "0:"
    INDEX 01 05:37:15
  TRACK 244 AUDIO
    TITLE "12:cjc171_04622"
    INDEX 01 05:37:56
  TRACK 245 AUDIO
    TITLE "0:"
    INDEX 01 05:40:48
  TRACK 246 AUDIO
    TITLE "13:cjc171_04623"
    INDEX 01 05:41:48
  TRACK 247 AUDIO
    TITLE "0:"
    INDEX 01 05:44:19
  TRACK 248 AUDIO
    TITLE "14:cjc171_04624"
    INDEX 01 05:44:58
  TRACK 249 AUDIO
    TITLE "0:"
    INDEX 01 05:47:13
  TRACK 250 AUDIO
    TITLE "15:cjc171_04625"
    INDEX 01 05:47:42
  TRACK 251 AUDIO
    TITLE "0:"
    INDEX 01 05:49:73
  TRACK 252 AUDIO
    TITLE "11:cjc171_04626"
    INDEX 01 05:51:03
  TRACK 253 AUDIO
    TITLE "0:"
    INDEX 01 05:52:24
  TRACK 254 AUDIO
    TITLE "12:cjc171_04627"
    INDEX 01 05:52:63
  TRACK 255 AUDIO
    TITLE "0:"
    INDEX 01 05:55:28
  TRACK 256 AUDIO
    TITLE "13:cjc171_04628"
    INDEX 01 05:56:28
  TRACK 257 AUDIO
    TITLE "0:"
    INDEX 01 05:58:07
  TRACK 258 AUDIO
    TITLE "14:cjc171_04629"
    INDEX 01 05:58:44
  TRACK 259 AUDIO
    TITLE "0:"
    INDEX 01 06:00:29
  TRACK 260 AUDIO
    TITLE "15:cjc171_04630"
    INDEX 01 06:00:57
  TRACK 261 AUDIO
    TITLE "0:"
    INDEX 01 06:02:44
  TRACK 262 AUDIO
    TITLE "11:cjc171_04631"
    INDEX 01 06:03:51
  TRACK 263 AUDIO
    TITLE "0:"
    INDEX 01 06:04:66
  TRACK 264 AUDIO
    TITLE "12:cjc171_04632"
    INDEX 01 06:05:33
  TRACK 265 AUDIO
    TITLE "0:"
    INDEX 01 06:07:37
  TRACK 266 AUDIO
    TITLE "13:cjc171_04633"
    INDEX 01 06:08:33
  TRACK 267 AUDIO
    TITLE "0:"
    INDEX 01 06:11:06
  TRACK 268 AUDIO
    TITLE "14:cjc171_04634"
    INDEX 01 06:11:45
  TRACK 269 AUDIO
    TITLE "0:"
    INDEX 01 06:13:54
  TRACK 270 AUDIO
    TITLE "15:cjc171_04635"
    INDEX 01 06:14:08
  TRACK 271 AUDIO
    TITLE "0:"
    INDEX 01 06:16:15
  TRACK 272 AUDIO
    TITLE "11:cjc171_04636"
    INDEX 01 06:17:14
  TRACK 273 AUDIO
    TITLE "0:"
    INDEX 01 06:18:27
  TRACK 274 AUDIO
    TITLE "12:cjc171_04637"
    INDEX 01 06:18:68
  TRACK 275 AUDIO
    TITLE "0:"
    INDEX 01 06:20:58
  TRACK 276 AUDIO
    TITLE "13:cjc171_04638"
    INDEX 01 06:21:57
  TRACK 277 AUDIO
    TITLE "0:"
    INDEX 01 06:23:60
  TRACK 278 AUDIO
    TITLE "14:cjc171_04639"
    INDEX 01 06:24:24
  TRACK 279 AUDIO
    TITLE "0:"
    INDEX 01 06:26:21
  TRACK 280 AUDIO
    TITLE "15:cjc171_04640"
    INDEX 01 06:26:52
  TRACK 281 AUDIO
    TITLE "0:"
    INDEX 01 06:28:47
  TRACK 282 AUDIO
    TITLE "11:cjc171_04641"
    INDEX 01 06:29:55
  TRACK 283 AUDIO
    TITLE "0:"
    INDEX 01 06:30:52
  TRACK 284 AUDIO
    TITLE "12:cjc171_04642"
    INDEX 01 06:31:18
  TRACK 285 AUDIO
    TITLE "0:"
    INDEX 01 06:33:05
  TRACK 286 AUDIO
    TITLE "13:cjc171_04643"
    INDEX 01 06:34:07
  TRACK 287 AUDIO
    TITLE "0:"
    INDEX 01 06:36:61
  TRACK 288 AUDIO
    TITLE "14:cjc171_04644"
    INDEX 01 06:37:23
  TRACK 289 AUDIO
    TITLE "0:"
    INDEX 01 06:39:33
  TRACK 290 AUDIO
    TITLE "15:cjc171_04645"
    INDEX 01 06:39:63
  TRACK 291 AUDIO
    TITLE "0:"
    INDEX 01 06:41:73
  TRACK 292 AUDIO
    TITLE "11:cjc171_04646"
    INDEX 01 06:43:04
  TRACK 293 AUDIO
    TITLE "0:"
    INDEX 01 06:44:25
  TRACK 294 AUDIO
    TITLE "12:cjc171_04647"
    INDEX 01 06:44:66
  TRACK 295 AUDIO
    TITLE "0:"
    INDEX 01 06:47:19
  TRACK 296 AUDIO
    TITLE "13:cjc171_04648"
    INDEX 01 06:48:17
  TRACK 297 AUDIO
    TITLE "0:"
    INDEX 01 06:50:29
  TRACK 298 AUDIO
    TITLE "14:cjc171_04649"
    INDEX 01 06:50:66
  TRACK 299 AUDIO
    TITLE "0:"
    INDEX 01 06:53:26
  TRACK 300 AUDIO
    TITLE "15:cjc171_04650"
    INDEX 01 06:53:55
  TRACK 301 AUDIO
    TITLE "0:"
    INDEX 01 06:56:14
  TRACK 302 AUDIO
    TITLE "11:cjc171_04651"
    INDEX 01 06:57:14
  TRACK 303 AUDIO
    TITLE "0:"
    INDEX 01 06:58:17
  TRACK 304 AUDIO
    TITLE "12:cjc171_04652"
    INDEX 01 06:58:52
  TRACK 305 AUDIO
    TITLE "0:"
    INDEX 01 07:00:53
  TRACK 306 AUDIO
    TITLE "13:cjc171_04653"
    INDEX 01 07:01:53
  TRACK 307 AUDIO
    TITLE "0:"
    INDEX 01 07:04:24
  TRACK 308 AUDIO
    TITLE "14:cjc171_04654"
    INDEX 01 07:04:59
  TRACK 309 AUDIO
    TITLE "0:"
    INDEX 01 07:08:02
  TRACK 310 AUDIO
    TITLE "15:cjc171_04655"
    INDEX 01 07:08:23
  TRACK 311 AUDIO
    TITLE "0:"
    INDEX 01 07:11:43
  TRACK 312 AUDIO
    TITLE "11:cjc171_04656"
    INDEX 01 07:12:43
  TRACK 313 AUDIO
    TITLE "0:"
    INDEX 01 07:13:64
  TRACK 314 AUDIO
    TITLE "12:cjc171_04657"
    INDEX 01 07:14:26
  TRACK 315 AUDIO
    TITLE "0:"
    INDEX 01 07:16:54
  TRACK 316 AUDIO
    TITLE "13:cjc171_04658"
    INDEX 01 07:17:52
  TRACK 317 AUDIO
    TITLE "0:"
    INDEX 01 07:20:36
  TRACK 318 AUDIO
    TITLE "14:cjc171_04659"
    INDEX 01 07:20:70
  TRACK 319 AUDIO
    TITLE "0:"
    INDEX 01 07:23:37
  TRACK 320 AUDIO
    TITLE "15:cjc171_04660"
    INDEX 01 07:23:58
  TRACK 321 AUDIO
    TITLE "0:"
    INDEX 01 07:26:23
  TRACK 322 AUDIO
    TITLE "11:cjc171_04661"
    INDEX 01 07:27:21
  TRACK 323 AUDIO
    TITLE "0:"
    INDEX 01 07:28:40
  TRACK 324 AUDIO
    TITLE "12:cjc171_04662"
    INDEX 01 07:29:00
  TRACK 325 AUDIO
    TITLE "0:"
    INDEX 01 07:31:36
  TRACK 326 AUDIO
    TITLE "13:cjc171_04663"
    INDEX 01 07:32:36
  TRACK 327 AUDIO
    TITLE "0:"
    INDEX 01 07:33:74
  TRACK 328 AUDIO
    TITLE "14:cjc171_04664"
    INDEX 01 07:34:34
  TRACK 329 AUDIO
    TITLE "0:"
    INDEX 01 07:36:27
  TRACK 330 AUDIO
    TITLE "15:cjc171_04665"
    INDEX 01 07:36:47
  TRACK 331 AUDIO
    TITLE "0:"
    INDEX 01 07:38:38
  TRACK 332 AUDIO
    TITLE "11:cjc171_04666"
    INDEX 01 07:39:36
  TRACK 333 AUDIO
    TITLE "0:"
    INDEX 01 07:40:51
  TRACK 334 AUDIO
    TITLE "12:cjc171_04667"
    INDEX 01 07:41:15
  TRACK 335 AUDIO
    TITLE "0:"
    INDEX 01 07:42:42
  TRACK 336 AUDIO
    TITLE "13:cjc171_04668"
    INDEX 01 07:43:41
  TRACK 337 AUDIO
    TITLE "0:"
    INDEX 01 07:45:71
  TRACK 338 AUDIO
    TITLE "14:cjc171_04669"
    INDEX 01 07:46:34
  TRACK 339 AUDIO
    TITLE "0:"
    INDEX 01 07:48:44
  TRACK 340 AUDIO
    TITLE "15:cjc171_04670"
    INDEX 01 07:48:64
  TRACK 341 AUDIO
    TITLE "0:"
    INDEX 01 07:51:04
  TRACK 342 AUDIO
    TITLE "11:cjc171_04671"
    INDEX 01 07:51:72
  TRACK 343 AUDIO
    TITLE "0:"
    INDEX 01 07:53:04
  TRACK 344 AUDIO
    TITLE "12:cjc171_04672"
    INDEX 01 07:53:46
  TRACK 345 AUDIO
    TITLE "0:"
    INDEX 01 07:57:04
  TRACK 346 AUDIO
    TITLE "13:cjc171_04673"
    INDEX 01 07:58:02
  TRACK 347 AUDIO
    TITLE "0:"
    INDEX 01 08:02:01
  TRACK 348 AUDIO
    TITLE "14:cjc171_04674"
    INDEX 01 08:02:37
  TRACK 349 AUDIO
    TITLE "0:"
    INDEX 01 08:07:26
  TRACK 350 AUDIO
    TITLE "15:cjc171_04675"
    INDEX 01 08:07:46
  TRACK 351 AUDIO
    TITLE "0:"
    INDEX 01 08:12:33
  TRACK 352 AUDIO
    TITLE "11:cjc171_04676"
    INDEX 01 08:13:29
  TRACK 353 AUDIO
    TITLE "0:"
    INDEX 01 08:14:38
  TRACK 354 AUDIO
    TITLE "12:cjc171_04677"
    INDEX 01 08:14:73
  TRACK 355 AUDIO
    TITLE "0:"
    INDEX 01 08:17:22
  TRACK 356 AUDIO
    TITLE "13:cjc171_04678"
    INDEX 01 08:18:20
  TRACK 357 AUDIO
    TITLE "0:"
    INDEX 01 08:20:48
  TRACK 358 AUDIO
    TITLE "14:cjc171_04679"
    INDEX 01 08:21:10
  TRACK 359 AUDIO
    TITLE "0:"
    INDEX 01 08:23:35
  TRACK 360 AUDIO
    TITLE "15:cjc171_04680"
    INDEX 01 08:23:56
  TRACK 361 AUDIO
    TITLE "0:"
    INDEX 01 08:26:06
  TRACK 362 AUDIO
    TITLE "11:cjc171_04681"
    INDEX 01 08:26:74
  TRACK 363 AUDIO
    TITLE "0:"
    INDEX 01 08:28:30
  TRACK 364 AUDIO
    TITLE "12:cjc171_04682"
    INDEX 01 08:28:63
  TRACK 365 AUDIO
    TITLE "0:"
    INDEX 01 08:30:09
  TRACK 366 AUDIO
    TITLE "13:cjc171_04683"
    INDEX 01 08:31:09
  TRACK 367 AUDIO
    TITLE "0:"
    INDEX 01 08:32:49
  TRACK 368 AUDIO
    TITLE "14:cjc171_04684"
    INDEX 01 08:33:10
  TRACK 369 AUDIO
    TITLE "0:"
    INDEX 01 08:35:15
  TRACK 370 AUDIO
    TITLE "15:cjc171_04685"
    INDEX 01 08:35:36
  TRACK 371 AUDIO
    TITLE "0:"
    INDEX 01 08:37:39
  TRACK 372 AUDIO
    TITLE "11:cjc171_04686"
    INDEX 01 08:38:36
  TRACK 373 AUDIO
    TITLE "0:"
    INDEX 01 08:40:06
  TRACK 374 AUDIO
    TITLE "12:cjc171_04687"
    INDEX 01 08:40:43
  TRACK 375 AUDIO
    TITLE "0:"
    INDEX 01 08:42:34
  TRACK 376 AUDIO
    TITLE "13:cjc171_04688"
    INDEX 01 08:43:32
  TRACK 377 AUDIO
    TITLE "0:"
    INDEX 01 08:45:01
  TRACK 378 AUDIO
    TITLE "14:cjc171_04689"
    INDEX 01 08:45:34
  TRACK 379 AUDIO
    TITLE "0:"
    INDEX 01 08:47:73
  TRACK 380 AUDIO
    TITLE "15:cjc171_04690"
    INDEX 01 08:48:17
  TRACK 381 AUDIO
    TITLE "0:"
    INDEX 01 08:50:55
  TRACK 382 AUDIO
    TITLE "11:cjc171_04691"
    INDEX 01 08:51:51
  TRACK 383 AUDIO
    TITLE "0:"
    INDEX 01 08:52:66
  TRACK 384 AUDIO
    TITLE "12:cjc171_04692"
    INDEX 01 08:53:28
  TRACK 385 AUDIO
    TITLE "0:"
    INDEX 01 08:55:41
  TRACK 386 AUDIO
    TITLE "13:cjc171_04693"
    INDEX 01 08:56:38
  TRACK 387 AUDIO
    TITLE "0:"
    INDEX 01 08:58:41
  TRACK 388 AUDIO
    TITLE "14:cjc171_04694"
    INDEX 01 08:58:74
  TRACK 389 AUDIO
    TITLE "0:"
    INDEX 01 09:01:04
  TRACK 390 AUDIO
    TITLE "15:cjc171_04695"
    INDEX 01 09:01:26
  TRACK 391 AUDIO
    TITLE "0:"
    INDEX 01 09:03:28
  TRACK 392 AUDIO
    TITLE "11:cjc171_04696"
    INDEX 01 09:04:26
  TRACK 393 AUDIO
    TITLE "0:"
    INDEX 01 09:05:31
  TRACK 394 AUDIO
    TITLE "12:cjc171_04697"
    INDEX 01 09:05:65
  TRACK 395 AUDIO
    TITLE "0:"
    INDEX 01 09:07:69
  TRACK 396 AUDIO
    TITLE "13:cjc171_04698"
    INDEX 01 09:08:67
  TRACK 397 AUDIO
    TITLE "0:"
    INDEX 01 09:11:18
  TRACK 398 AUDIO
    TITLE "14:cjc171_04699"
    INDEX 01 09:11:50
  TRACK 399 AUDIO
    TITLE "0:"
    INDEX 01 09:13:52
  TRACK 400 AUDIO
    TITLE "15:cjc171_04700"
    INDEX 01 09:14:01
  TRACK 401 AUDIO
    TITLE "0:"
    INDEX 01 09:16:02
  TRACK 402 AUDIO
    TITLE "11:cjc171_04701"
    INDEX 01 09:17:05
  TRACK 403 AUDIO
    TITLE "0:"
    INDEX 01 09:18:20
  TRACK 404 AUDIO
    TITLE "12:cjc171_04702"
    INDEX 01 09:18:59
  TRACK 405 AUDIO
    TITLE "0:"
    INDEX 01 09:20:58
  TRACK 406 AUDIO
    TITLE "13:cjc171_04703"
    INDEX 01 09:21:58
  TRACK 407 AUDIO
    TITLE "0:"
    INDEX 01 09:24:01
  TRACK 408 AUDIO
    TITLE "14:cjc171_04704"
    INDEX 01 09:24:40
  TRACK 409 AUDIO
    TITLE "0:"
    INDEX 01 09:27:07
  TRACK 410 AUDIO
    TITLE "15:cjc171_04705"
    INDEX 01 09:27:37
  TRACK 411 AUDIO
    TITLE "0:"
    INDEX 01 09:30:04
  TRACK 412 AUDIO
    TITLE "11:cjc171_04706"
    INDEX 01 09:31:09
  TRACK 413 AUDIO
    TITLE "0:"
    INDEX 01 09:32:22
  TRACK 414 AUDIO
    TITLE "12:cjc171_04707"
    INDEX 01 09:32:61
  TRACK 415 AUDIO
    TITLE "0:"
    INDEX 01 09:35:17
  TRACK 416 AUDIO
    TITLE "13:cjc171_04708"
    INDEX 01 09:36:14
  TRACK 417 AUDIO
    TITLE "0:"
    INDEX 01 09:38:70
  TRACK 418 AUDIO
    TITLE "14:cjc171_04709"
    INDEX 01 09:39:34
  TRACK 419 AUDIO
    TITLE "0:"
    INDEX 01 09:41:62
  TRACK 420 AUDIO
    TITLE "15:cjc171_04710"
    INDEX 01 09:42:17
  TRACK 421 AUDIO
    TITLE "0:"
    INDEX 01 09:44:45
  TRACK 422 AUDIO
    TITLE "11:cjc171_04711"
    INDEX 01 09:45:50
  TRACK 423 AUDIO
    TITLE "0:"
    INDEX 01 09:47:10
  TRACK 424 AUDIO
    TITLE "12:cjc171_04712"
    INDEX 01 09:47:47
  TRACK 425 AUDIO
    TITLE "0:"
    INDEX 01 09:49:64
  TRACK 426 AUDIO
    TITLE "13:cjc171_04713"
    INDEX 01 09:50:65
  TRACK 427 AUDIO
    TITLE "0:"
    INDEX 01 09:53:56
  TRACK 428 AUDIO
    TITLE "14:cjc171_04714"
    INDEX 01 09:54:26
  TRACK 429 AUDIO
    TITLE "0:"
    INDEX 01 09:56:62
  TRACK 430 AUDIO
    TITLE "15:cjc171_04715"
    INDEX 01 09:57:18
  TRACK 431 AUDIO
    TITLE "0:"
    INDEX 01 09:59:54
  TRACK 432 AUDIO
    TITLE "11:cjc171_04716"
    INDEX 01 10:00:58
  TRACK 433 AUDIO
    TITLE "0:"
    INDEX 01 10:02:08
  TRACK 434 AUDIO
    TITLE "12:cjc171_04717"
    INDEX 01 10:02:45
  TRACK 435 AUDIO
    TITLE "0:"
    INDEX 01 10:05:24
  TRACK 436 AUDIO
    TITLE "13:cjc171_04718"
    INDEX 01 10:06:25
  TRACK 437 AUDIO
    TITLE "0:"
    INDEX 01 10:09:21
  TRACK 438 AUDIO
    TITLE "14:cjc171_04719"
    INDEX 01 10:09:57
  TRACK 439 AUDIO
    TITLE "0:"
    INDEX 01 10:12:26
  TRACK 440 AUDIO
    TITLE "15:cjc171_04720"
    INDEX 01 10:12:53
  TRACK 441 AUDIO
    TITLE "0:"
    INDEX 01 10:15:20
  TRACK 442 AUDIO
    TITLE "11:cjc171_04721"
    INDEX 01 10:16:22
  TRACK 443 AUDIO
    TITLE "0:"
    INDEX 01 10:17:46
  TRACK 444 AUDIO
    TITLE "12:cjc171_04722"
    INDEX 01 10:18:09
  TRACK 445 AUDIO
    TITLE "0:"
    INDEX 01 10:21:07
  TRACK 446 AUDIO
    TITLE "13:cjc171_04723"
    INDEX 01 10:22:07
  TRACK 447 AUDIO
    TITLE "0:"
    INDEX 01 10:24:07
  TRACK 448 AUDIO
    TITLE "14:cjc171_04724"
    INDEX 01 10:24:48
  TRACK 449 AUDIO
    TITLE "0:"
    INDEX 01 10:26:43
  TRACK 450 AUDIO
    TITLE "15:cjc171_04725"
    INDEX 01 10:26:73
  TRACK 451 AUDIO
    TITLE "0:"
    INDEX 01 10:28:68
  TRACK 452 AUDIO
    TITLE "11:cjc171_04726"
    INDEX 01 10:29:73
  TRACK 453 AUDIO
    TITLE "0:"
    INDEX 01 10:31:29
  TRACK 454 AUDIO
    TITLE "12:cjc171_04727"
    INDEX 01 10:31:70
  TRACK 455 AUDIO
    TITLE "0:"
    INDEX 01 10:34:35
  TRACK 456 AUDIO
    TITLE "13:cjc171_04728"
    INDEX 01 10:35:35
  TRACK 457 AUDIO
    TITLE "0:"
    INDEX 01 10:37:02
  TRACK 458 AUDIO
    TITLE "14:cjc171_04729"
    INDEX 01 10:37:41
  TRACK 459 AUDIO
    TITLE "0:"
    INDEX 01 10:39:27
  TRACK 460 AUDIO
    TITLE "15:cjc171_04730"
    INDEX 01 10:39:54
  TRACK 461 AUDIO
    TITLE "0:"
    INDEX 01 10:41:39
  TRACK 462 AUDIO
    TITLE "11:cjc171_04731"
    INDEX 01 10:42:42
  TRACK 463 AUDIO
    TITLE "0:"
    INDEX 01 10:43:52
  TRACK 464 AUDIO
    TITLE "12:cjc171_04732"
    INDEX 01 10:44:18
  TRACK 465 AUDIO
    TITLE "0:"
    INDEX 01 10:45:29
  TRACK 466 AUDIO
    TITLE "13:cjc171_04733"
    INDEX 01 10:46:30
  TRACK 467 AUDIO
    TITLE "0:"
    INDEX 01 10:47:71
  TRACK 468 AUDIO
    TITLE "14:cjc171_04734"
    INDEX 01 10:48:37
  TRACK 469 AUDIO
    TITLE "0:"
    INDEX 01 10:50:15
  TRACK 470 AUDIO
    TITLE "15:cjc171_04735"
    INDEX 01 10:50:44
  TRACK 471 AUDIO
    TITLE "0:"
    INDEX 01 10:52:23
  TRACK 472 AUDIO
    TITLE "11:cjc171_04736"
    INDEX 01 10:53:29
  TRACK 473 AUDIO
    TITLE "0:"
    INDEX 01 10:54:61
  TRACK 474 AUDIO
    TITLE "12:cjc171_04737"
    INDEX 01 10:55:26
  TRACK 475 AUDIO
    TITLE "0:"
    INDEX 01 10:57:56
  TRACK 476 AUDIO
    TITLE "13:cjc171_04738"
    INDEX 01 10:58:55
  TRACK 477 AUDIO
    TITLE "0:"
    INDEX 01 11:00:31
  TRACK 478 AUDIO
    TITLE "14:cjc171_04739"
    INDEX 01 11:00:68
  TRACK 479 AUDIO
    TITLE "0:"
    INDEX 01 11:03:05
  TRACK 480 AUDIO
    TITLE "15:cjc171_04740"
    INDEX 01 11:03:35
  TRACK 481 AUDIO
    TITLE "0:"
    INDEX 01 11:05:47
  TRACK 482 AUDIO
    TITLE "11:cjc171_04741"
    INDEX 01 11:06:53
  TRACK 483 AUDIO
    TITLE "0:"
    INDEX 01 11:07:72
  TRACK 484 AUDIO
    TITLE "12:cjc171_04742"
    INDEX 01 11:08:38
  TRACK 485 AUDIO
    TITLE "0:"
    INDEX 01 11:10:56
  TRACK 486 AUDIO
    TITLE "13:cjc171_04743"
    INDEX 01 11:11:54
  TRACK 487 AUDIO
    TITLE "0:"
    INDEX 01 11:13:31
  TRACK 488 AUDIO
    TITLE "14:cjc171_04744"
    INDEX 01 11:13:70
  TRACK 489 AUDIO
    TITLE "0:"
    INDEX 01 11:16:02
  TRACK 490 AUDIO
    TITLE "15:cjc171_04745"
    INDEX 01 11:16:30
  TRACK 491 AUDIO
    TITLE "0:"
    INDEX 01 11:18:36
  TRACK 492 AUDIO
    TITLE "11:cjc171_04746"
    INDEX 01 11:19:40
  TRACK 493 AUDIO
    TITLE "0:"
    INDEX 01 11:20:74
  TRACK 494 AUDIO
    TITLE "12:cjc171_04747"
    INDEX 01 11:21:37
  TRACK 495 AUDIO
    TITLE "0:"
    INDEX 01 11:22:50
  TRACK 496 AUDIO
    TITLE "13:cjc171_04748"
    INDEX 01 11:23:47
  TRACK 497 AUDIO
    TITLE "0:"
    INDEX 01 11:25:42
  TRACK 498 AUDIO
    TITLE "14:cjc171_04749"
    INDEX 01 11:26:07
  TRACK 499 AUDIO
    TITLE "0:"
    INDEX 01 11:28:05
  TRACK 500 AUDIO
    TITLE "15:cjc171_04750"
    INDEX 01 11:28:35
  TRACK 501 AUDIO
    TITLE "0:"
    INDEX 01 11:30:36
  TRACK 502 AUDIO
    TITLE "11:cjc171_04751"
    INDEX 01 11:31:35
  TRACK 503 AUDIO
    TITLE "0:"
    INDEX 01 11:32:46
  TRACK 504 AUDIO
    TITLE "12:cjc171_04752"
    INDEX 01 11:33:09
  TRACK 505 AUDIO
    TITLE "0:"
    INDEX 01 11:35:52
  TRACK 506 AUDIO
    TITLE "13:cjc171_04753"
    INDEX 01 11:36:48
  TRACK 507 AUDIO
    TITLE "0:"
    INDEX 01 11:40:28
  TRACK 508 AUDIO
    TITLE "14:cjc171_04754"
    INDEX 01 11:40:65
  TRACK 509 AUDIO
    TITLE "0:"
    INDEX 01 11:44:14
  TRACK 510 AUDIO
    TITLE "15:cjc171_04755"
    INDEX 01 11:44:34
  TRACK 511 AUDIO
    TITLE "0:"
    INDEX 01 11:47:60
  TRACK 512 AUDIO
    TITLE "11:cjc171_04756"
    INDEX 01 11:48:55
  TRACK 513 AUDIO
    TITLE "0:"
    INDEX 01 11:50:13
  TRACK 514 AUDIO
    TITLE "12:cjc171_04757"
    INDEX 01 11:50:52
  TRACK 515 AUDIO
    TITLE "0:"
    INDEX 01 11:52:22
  TRACK 516 AUDIO
    TITLE "13:cjc171_04758"
    INDEX 01 11:53:19
  TRACK 517 AUDIO
    TITLE "0:"
    INDEX 01 11:56:55
  TRACK 518 AUDIO
    TITLE "14:cjc171_04759"
    INDEX 01 11:57:13
  TRACK 519 AUDIO
    TITLE "0:"
    INDEX 01 12:00:11
  TRACK 520 AUDIO
    TITLE "15:cjc171_04760"
    INDEX 01 12:00:33
  TRACK 521 AUDIO
    TITLE "0:"
    INDEX 01 12:03:29
  TRACK 522 AUDIO
    TITLE "11:cjc171_04761"
    INDEX 01 12:04:23
  TRACK 523 AUDIO
    TITLE "0:"
    INDEX 01 12:05:48
  TRACK 524 AUDIO
    TITLE "12:cjc171_04762"
    INDEX 01 12:06:10
  TRACK 525 AUDIO
    TITLE "0:"
    INDEX 01 12:09:44
  TRACK 526 AUDIO
    TITLE "13:cjc171_04763"
    INDEX 01 12:10:43
  TRACK 527 AUDIO
    TITLE "0:"
    INDEX 01 12:12:61
  TRACK 528 AUDIO
    TITLE "14:cjc171_04764"
    INDEX 01 12:13:20
  TRACK 529 AUDIO
    TITLE "0:"
    INDEX 01 12:15:38
  TRACK 530 AUDIO
    TITLE "15:cjc171_04765"
    INDEX 01 12:15:58
  TRACK 531 AUDIO
    TITLE "0:"
    INDEX 01 12:18:01
  TRACK 532 AUDIO
    TITLE "11:cjc171_04766"
    INDEX 01 12:18:70
  TRACK 533 AUDIO
    TITLE "0:"
    INDEX 01 12:20:22
  TRACK 534 AUDIO
    TITLE "12:cjc171_04767"
    INDEX 01 12:20:59
  TRACK 535 AUDIO
    TITLE "0:"
    INDEX 01 12:22:46
  TRACK 536 AUDIO
    TITLE "13:cjc171_04768"
    INDEX 01 12:23:46
  TRACK 537 AUDIO
    TITLE "0:"
    INDEX 01 12:26:01
  TRACK 538 AUDIO
    TITLE "14:cjc171_04769"
    INDEX 01 12:26:34
  TRACK 539 AUDIO
    TITLE "0:"
    INDEX 01 12:29:19
  TRACK 540 AUDIO
    TITLE "15:cjc171_04770"
    INDEX 01 12:29:38
  TRACK 541 AUDIO
    TITLE "0:"
    INDEX 01 12:32:21
  TRACK 542 AUDIO
    TITLE "11:cjc171_04771"
    INDEX 01 12:33:15
  TRACK 543 AUDIO
    TITLE "0:"
    INDEX 01 12:34:49
  TRACK 544 AUDIO
    TITLE "12:cjc171_04772"
    INDEX 01 12:35:10
  TRACK 545 AUDIO
    TITLE "0:"
    INDEX 01 12:38:31
  TRACK 546 AUDIO
    TITLE "13:cjc171_04773"
    INDEX 01 12:39:33
  TRACK 547 AUDIO
    TITLE "0:"
    INDEX 01 12:42:12
  TRACK 548 AUDIO
    TITLE "14:cjc171_04774"
    INDEX 01 12:42:45
  TRACK 549 AUDIO
    TITLE "0:"
    INDEX 01 12:45:04
  TRACK 550 AUDIO
    TITLE "15:cjc171_04775"
    INDEX 01 12:45:26
  TRACK 551 AUDIO
    TITLE "0:"
    INDEX 01 12:47:60
  TRACK 552 AUDIO
    TITLE "11:cjc171_04776"
    INDEX 01 12:48:59
  TRACK 553 AUDIO
    TITLE "0:"
    INDEX 01 12:49:70
  TRACK 554 AUDIO
    TITLE "12:cjc171_04777"
    INDEX 01 12:50:33
  TRACK 555 AUDIO
    TITLE "0:"
    INDEX 01 12:53:02
  TRACK 556 AUDIO
    TITLE "13:cjc171_04778"
    INDEX 01 12:53:74
  TRACK 557 AUDIO
    TITLE "0:"
    INDEX 01 12:55:36
  TRACK 558 AUDIO
    TITLE "14:cjc171_04779"
    INDEX 01 12:55:69
  TRACK 559 AUDIO
    TITLE "0:"
    INDEX 01 12:57:54
  TRACK 560 AUDIO
    TITLE "15:cjc171_04780"
    INDEX 01 12:58:03
  TRACK 561 AUDIO
    TITLE "0:"
    INDEX 01 12:59:53
  TRACK 562 AUDIO
    TITLE "11:cjc171_04781"
    INDEX 01 13:00:60
  TRACK 563 AUDIO
    TITLE "0:"
    INDEX 01 13:02:01
  TRACK 564 AUDIO
    TITLE "12:cjc171_04782"
    INDEX 01 13:02:32
  TRACK 565 AUDIO
    TITLE "0:"
    INDEX 01 13:03:51
  TRACK 566 AUDIO
    TITLE "13:cjc171_04783"
    INDEX 01 13:04:50
  TRACK 567 AUDIO
    TITLE "0:"
    INDEX 01 13:06:32
  TRACK 568 AUDIO
    TITLE "14:cjc171_04784"
    INDEX 01 13:06:65
  TRACK 569 AUDIO
    TITLE "0:"
    INDEX 01 13:08:62
  TRACK 570 AUDIO
    TITLE "15:cjc171_04785"
    INDEX 01 13:09:05
  TRACK 571 AUDIO
    TITLE "0:"
    INDEX 01 13:11:03
  TRACK 572 AUDIO
    TITLE "11:cjc171_04786"
    INDEX 01 13:11:72
  TRACK 573 AUDIO
    TITLE "0:"
    INDEX 01 13:13:12
  TRACK 574 AUDIO
    TITLE "12:cjc171_04787"
    INDEX 01 13:13:49
  TRACK 575 AUDIO
    TITLE "0:"
    INDEX 01 13:16:11
  TRACK 576 AUDIO
    TITLE "13:cjc171_04788"
    INDEX 01 13:17:10
  TRACK 577 AUDIO
    TITLE "0:"
    INDEX 01 13:18:66
  TRACK 578 AUDIO
    TITLE "14:cjc171_04789"
    INDEX 01 13:19:25
  TRACK 579 AUDIO
    TITLE "0:"
    INDEX 01 13:21:23
  TRACK 580 AUDIO
    TITLE "15:cjc171_04790"
    INDEX 01 13:21:41
  TRACK 581 AUDIO
    TITLE "0:"
    INDEX 01 13:23:42
  TRACK 582 AUDIO
    TITLE "11:cjc171_04791"
    INDEX 01 13:24:39
  TRACK 583 AUDIO
    TITLE "0:"
    INDEX 01 13:25:60
  TRACK 584 AUDIO
    TITLE "12:cjc171_04792"
    INDEX 01 13:26:23
  TRACK 585 AUDIO
    TITLE "0:"
    INDEX 01 13:27:59
  TRACK 586 AUDIO
    TITLE "13:cjc171_04793"
    INDEX 01 13:28:59
  TRACK 587 AUDIO
    TITLE "0:"
    INDEX 01 13:31:34
  TRACK 588 AUDIO
    TITLE "14:cjc171_04794"
    INDEX 01 13:31:65
  TRACK 589 AUDIO
    TITLE "0:"
    INDEX 01 13:34:30
  TRACK 590 AUDIO
    TITLE "15:cjc171_04795"
    INDEX 01 13:34:50
  TRACK 591 AUDIO
    TITLE "0:"
    INDEX 01 13:37:15
  TRACK 592 AUDIO
    TITLE "11:cjc171_04796"
    INDEX 01 13:38:10
  TRACK 593 AUDIO
    TITLE "0:"
    INDEX 01 13:39:29
  TRACK 594 AUDIO
    TITLE "12:cjc171_04797"
    INDEX 01 13:39:64
  TRACK 595 AUDIO
    TITLE "0:"
    INDEX 01 13:42:37
  TRACK 596 AUDIO
    TITLE "13:cjc171_04798"
    INDEX 01 13:43:37
  TRACK 597 AUDIO
    TITLE "0:"
    INDEX 01 13:45:73
  TRACK 598 AUDIO
    TITLE "14:cjc171_04799"
    INDEX 01 13:46:31
  TRACK 599 AUDIO
    TITLE "0:"
    INDEX 01 13:49:20
  TRACK 600 AUDIO
    TITLE "15:cjc171_04800"
    INDEX 01 13:49:41
  TRACK 601 AUDIO
    TITLE "0:"
    INDEX 01 13:52:26
  TRACK 602 AUDIO
    TITLE "11:cjc171_04801"
    INDEX 01 13:53:27
  TRACK 603 AUDIO
    TITLE "0:"
    INDEX 01 13:54:44
  TRACK 604 AUDIO
    TITLE "12:cjc171_04802"
    INDEX 01 13:55:11
  TRACK 605 AUDIO
    TITLE "0:"
    INDEX 01 13:56:61
  TRACK 606 AUDIO
    TITLE "13:cjc171_04803"
    INDEX 01 13:57:60
  TRACK 607 AUDIO
    TITLE "0:"
    INDEX 01 14:00:69
  TRACK 608 AUDIO
    TITLE "14:cjc171_04804"
    INDEX 01 14:01:35
  TRACK 609 AUDIO
    TITLE "0:"
    INDEX 01 14:04:08
  TRACK 610 AUDIO
    TITLE "15:cjc171_04805"
    INDEX 01 14:04:37
  TRACK 611 AUDIO
    TITLE "0:"
    INDEX 01 14:07:14
  TRACK 612 AUDIO
    TITLE "11:cjc171_04806"
    INDEX 01 14:08:17
  TRACK 613 AUDIO
    TITLE "0:"
    INDEX 01 14:09:38
  TRACK 614 AUDIO
    TITLE "12:cjc171_04807"
    INDEX 01 14:10:02
  TRACK 615 AUDIO
    TITLE "0:"
    INDEX 01 14:12:66
  TRACK 616 AUDIO
    TITLE "13:cjc171_04808"
    INDEX 01 14:13:65
  TRACK 617 AUDIO
    TITLE "0:"
    INDEX 01 14:16:44
  TRACK 618 AUDIO
    TITLE "14:cjc171_04809"
    INDEX 01 14:17:08
  TRACK 619 AUDIO
    TITLE "0:"
    INDEX 01 14:20:18
  TRACK 620 AUDIO
    TITLE "15:cjc171_04810"
    INDEX 01 14:20:50
  TRACK 621 AUDIO
    TITLE "0:"
    INDEX 01 14:23:62
  TRACK 622 AUDIO
    TITLE "11:cjc171_04811"
    INDEX 01 14:24:67
  TRACK 623 AUDIO
    TITLE "0:"
    INDEX 01 14:26:05
  TRACK 624 AUDIO
    TITLE "12:cjc171_04812"
    INDEX 01 14:26:44
  TRACK 625 AUDIO
    TITLE "0:"
    INDEX 01 14:29:06
  TRACK 626 AUDIO
    TITLE "13:cjc171_04813"
    INDEX 01 14:30:05
  TRACK 627 AUDIO
    TITLE "0:"
    INDEX 01 14:33:05
  TRACK 628 AUDIO
    TITLE "14:cjc171_04814"
    INDEX 01 14:33:45
  TRACK 629 AUDIO
    TITLE "0:"
    INDEX 01 14:35:71
  TRACK 630 AUDIO
    TITLE "15:cjc171_04815"
    INDEX 01 14:36:25
  TRACK 631 AUDIO
    TITLE "0:"
    INDEX 01 14:38:52
  TRACK 632 AUDIO
    TITLE "11:cjc171_04816"
    INDEX 01 14:39:55
  TRACK 633 AUDIO
    TITLE "0:"
    INDEX 01 14:40:64
  TRACK 634 AUDIO
    TITLE "12:cjc171_04817"
    INDEX 01 14:41:26
  TRACK 635 AUDIO
    TITLE "0:"
    INDEX 01 14:42:28
  TRACK 636 AUDIO
    TITLE "13:cjc171_04818"
    INDEX 01 14:43:27
  TRACK 637 AUDIO
    TITLE "0:"
    INDEX 01 14:44:68
  TRACK 638 AUDIO
    TITLE "14:cjc171_04819"
    INDEX 01 14:45:32
  TRACK 639 AUDIO
    TITLE "0:"
    INDEX 01 14:47:56
  TRACK 640 AUDIO
    TITLE "15:cjc171_04820"
    INDEX 01 14:48:13
  TRACK 641 AUDIO
    TITLE "0:"
    INDEX 01 14:50:37
  TRACK 642 AUDIO
    TITLE "11:cjc171_04821"
    INDEX 01 14:51:42
  TRACK 643 AUDIO
    TITLE "0:"
    INDEX 01 14:52:58
  TRACK 644 AUDIO
    TITLE "12:cjc171_04822"
    INDEX 01 14:53:24
  TRACK 645 AUDIO
    TITLE "0:"
    INDEX 01 14:54:51
  TRACK 646 AUDIO
    TITLE "13:cjc171_04823"
    INDEX 01 14:55:50
  TRACK 647 AUDIO
    TITLE "0:"
    INDEX 01 14:57:72
  TRACK 648 AUDIO
    TITLE "14:cjc171_04824"
    INDEX 01 14:58:35
  TRACK 649 AUDIO
    TITLE "0:"
    INDEX 01 15:00:45
  TRACK 650 AUDIO
    TITLE "15:cjc171_04825"
    INDEX 01 15:01:00
  TRACK 651 AUDIO
    TITLE "0:"
    INDEX 01 15:03:10
  TRACK 652 AUDIO
    TITLE "11:cjc171_04826"
    INDEX 01 15:04:14
  TRACK 653 AUDIO
    TITLE "0:"
    INDEX 01 15:05:25
  TRACK 654 AUDIO
    TITLE "12:cjc171_04827"
    INDEX 01 15:05:64
  TRACK 655 AUDIO
    TITLE "0:"
    INDEX 01 15:08:55
  TRACK 656 AUDIO
    TITLE "13:cjc171_04828"
    INDEX 01 15:09:54
  TRACK 657 AUDIO
    TITLE "0:"
    INDEX 01 15:12:03
  TRACK 658 AUDIO
    TITLE "14:cjc171_04829"
    INDEX 01 15:12:43
  TRACK 659 AUDIO
    TITLE "0:"
    INDEX 01 15:14:69
  TRACK 660 AUDIO
    TITLE "15:cjc171_04830"
    INDEX 01 15:15:25
  TRACK 661 AUDIO
    TITLE "0:"
    INDEX 01 15:17:52
  TRACK 662 AUDIO
    TITLE "11:cjc171_04831"
    INDEX 01 15:18:57
  TRACK 663 AUDIO
    TITLE "0:"
    INDEX 01 15:20:11
  TRACK 664 AUDIO
    TITLE "12:cjc171_04832"
    INDEX 01 15:20:46
  TRACK 665 AUDIO
    TITLE "0:"
    INDEX 01 15:22:27
  TRACK 666 AUDIO
    TITLE "13:cjc171_04833"
    INDEX 01 15:23:27
  TRACK 667 AUDIO
    TITLE "0:"
    INDEX 01 15:26:45
  TRACK 668 AUDIO
    TITLE "14:cjc171_04834"
    INDEX 01 15:27:09
  TRACK 669 AUDIO
    TITLE "0:"
    INDEX 01 15:29:39
  TRACK 670 AUDIO
    TITLE "15:cjc171_04835"
    INDEX 01 15:29:70
  TRACK 671 AUDIO
    TITLE "0:"
    INDEX 01 15:32:24
  TRACK 672 AUDIO
    TITLE "11:cjc171_04836"
    INDEX 01 15:33:31
  TRACK 673 AUDIO
    TITLE "0:"
    INDEX 01 15:34:58
  TRACK 674 AUDIO
    TITLE "12:cjc171_04837"
    INDEX 01 15:35:22
  TRACK 675 AUDIO
    TITLE "0:"
    INDEX 01 15:37:56
  TRACK 676 AUDIO
    TITLE "13:cjc171_04838"
    INDEX 01 15:38:56
  TRACK 677 AUDIO
    TITLE "0:"
    INDEX 01 15:40:70
  TRACK 678 AUDIO
    TITLE "14:cjc171_04839"
    INDEX 01 15:41:34
  TRACK 679 AUDIO
    TITLE "0:"
    INDEX 01 15:43:41
  TRACK 680 AUDIO
    TITLE "15:cjc171_04840"
    INDEX 01 15:43:71
  TRACK 681 AUDIO
    TITLE "0:"
    INDEX 01 15:46:00
  TRACK 682 AUDIO
    TITLE "11:cjc171_04841"
    INDEX 01 15:47:06
  TRACK 683 AUDIO
    TITLE "0:"
    INDEX 01 15:48:23
  TRACK 684 AUDIO
    TITLE "12:cjc171_04842"
    INDEX 01 15:48:62
  TRACK 685 AUDIO
    TITLE "0:"
    INDEX 01 15:52:36
  TRACK 686 AUDIO
    TITLE "13:cjc171_04843"
    INDEX 01 15:53:36
  TRACK 687 AUDIO
    TITLE "0:"
    INDEX 01 15:56:36
  TRACK 688 AUDIO
    TITLE "14:cjc171_04844"
    INDEX 01 15:57:00
  TRACK 689 AUDIO
    TITLE "0:"
    INDEX 01 15:59:66
  TRACK 690 AUDIO
    TITLE "15:cjc171_04845"
    INDEX 01 16:00:20
  TRACK 691 AUDIO
    TITLE "0:"
    INDEX 01 16:03:11
  TRACK 692 AUDIO
    TITLE "11:cjc171_04846"
    INDEX 01 16:04:14
  TRACK 693 AUDIO
    TITLE "0:"
    INDEX 01 16:05:21
  TRACK 694 AUDIO
    TITLE "12:cjc171_04847"
    INDEX 01 16:05:58
  TRACK 695 AUDIO
    TITLE "0:"
    INDEX 01 16:08:24
  TRACK 696 AUDIO
    TITLE "13:cjc171_04848"
    INDEX 01 16:09:21
  TRACK 697 AUDIO
    TITLE "0:"
    INDEX 01 16:10:71
  TRACK 698 AUDIO
    TITLE "14:cjc171_04849"
    INDEX 01 16:11:36
  TRACK 699 AUDIO
    TITLE "0:"
    INDEX 01 16:13:34
  TRACK 700 AUDIO
    TITLE "15:cjc171_04850"
    INDEX 01 16:13:66
  TRACK 701 AUDIO
    TITLE "0:"
    INDEX 01 16:15:63
  TRACK 702 AUDIO
    TITLE "11:cjc171_04851"
    INDEX 01 16:16:66
  TRACK 703 AUDIO
    TITLE "0:"
    INDEX 01 16:18:24
  TRACK 704 AUDIO
    TITLE "12:cjc171_04852"
    INDEX 01 16:18:65
  TRACK 705 AUDIO
    TITLE "0:"
    INDEX 01 16:20:37
  TRACK 706 AUDIO
    TITLE "13:cjc171_04853"
    INDEX 01 16:21:36
  TRACK 707 AUDIO
    TITLE "0:"
    INDEX 01 16:24:25
  TRACK 708 AUDIO
    TITLE "14:cjc171_04854"
    INDEX 01 16:24:58
  TRACK 709 AUDIO
    TITLE "0:"
    INDEX 01 16:27:37
  TRACK 710 AUDIO
    TITLE "15:cjc171_04855"
    INDEX 01 16:27:56
  TRACK 711 AUDIO
    TITLE "0:"
    INDEX 01 16:30:37
  TRACK 712 AUDIO
    TITLE "11:cjc171_04856"
    INDEX 01 16:31:32
  TRACK 713 AUDIO
    TITLE "0:"
    INDEX 01 16:32:53
  TRACK 714 AUDIO
    TITLE "12:cjc171_04857"
    INDEX 01 16:33:18
  TRACK 715 AUDIO
    TITLE "0:"
    INDEX 01 16:34:50
  TRACK 716 AUDIO
    TITLE "13:cjc171_04858"
    INDEX 01 16:35:50
  TRACK 717 AUDIO
    TITLE "0:"
    INDEX 01 16:37:68
  TRACK 718 AUDIO
    TITLE "14:cjc171_04859"
    INDEX 01 16:38:30
  TRACK 719 AUDIO
    TITLE "0:"
    INDEX 01 16:40:63
  TRACK 720 AUDIO
    TITLE "15:cjc171_04860"
    INDEX 01 16:41:09
  TRACK 721 AUDIO
    TITLE "0:"
    INDEX 01 16:43:43
  TRACK 722 AUDIO
    TITLE "11:cjc171_04861"
    INDEX 01 16:44:41
  TRACK 723 AUDIO
    TITLE "0:"
    INDEX 01 16:46:01
  TRACK 724 AUDIO
    TITLE "12:cjc171_04862"
    INDEX 01 16:46:42
  TRACK 725 AUDIO
    TITLE "0:"
    INDEX 01 16:48:03
  TRACK 726 AUDIO
    TITLE "13:cjc171_04863"
    INDEX 01 16:49:05
  TRACK 727 AUDIO
    TITLE "0:"
    INDEX 01 16:51:29
  TRACK 728 AUDIO
    TITLE "14:cjc171_04864"
    INDEX 01 16:51:64
  TRACK 729 AUDIO
    TITLE "0:"
    INDEX 01 16:54:67
  TRACK 730 AUDIO
    TITLE "15:cjc171_04865"
    INDEX 01 16:55:17
  TRACK 731 AUDIO
    TITLE "0:"
    INDEX 01 16:58:19
  TRACK 732 AUDIO
    TITLE "11:cjc171_04866"
    INDEX 01 16:59:19
  TRACK 733 AUDIO
    TITLE "0:"
    INDEX 01 17:00:48
  TRACK 734 AUDIO
    TITLE "12:cjc171_04867"
    INDEX 01 17:01:06
  TRACK 735 AUDIO
    TITLE "0:"
    INDEX 01 17:04:01
  TRACK 736 AUDIO
    TITLE "13:cjc171_04868"
    INDEX 01 17:05:00
  TRACK 737 AUDIO
    TITLE "0:"
    INDEX 01 17:07:71
  TRACK 738 AUDIO
    TITLE "14:cjc171_04869"
    INDEX 01 17:08:30
  TRACK 739 AUDIO
    TITLE "0:"
    INDEX 01 17:10:70
  TRACK 740 AUDIO
    TITLE "15:cjc171_04870"
    INDEX 01 17:11:14
  TRACK 741 AUDIO
    TITLE "0:"
    INDEX 01 17:13:54
  TRACK 742 AUDIO
    TITLE "11:cjc171_04871"
    INDEX 01 17:14:50
  TRACK 743 AUDIO
    TITLE "0:"
    INDEX 01 17:15:57
  TRACK 744 AUDIO
    TITLE "12:cjc171_04872"
    INDEX 01 17:16:23
  TRACK 745 AUDIO
    TITLE "0:"
    INDEX 01 17:18:55
  TRACK 746 AUDIO
    TITLE "13:cjc171_04873"
    INDEX 01 17:19:57
  TRACK 747 AUDIO
    TITLE "0:"
    INDEX 01 17:21:11
  TRACK 748 AUDIO
    TITLE "14:cjc171_04874"
    INDEX 01 17:21:44
  TRACK 749 AUDIO
    TITLE "0:"
    INDEX 01 17:23:57
  TRACK 750 AUDIO
    TITLE "15:cjc171_04875"
    INDEX 01 17:24:09
  TRACK 751 AUDIO
    TITLE "0:"
    INDEX 01 17:26:20
  TRACK 752 AUDIO
    TITLE "11:cjc171_04876"
    INDEX 01 17:27:25
  TRACK 753 AUDIO
    TITLE "0:"
    INDEX 01 17:28:40
  TRACK 754 AUDIO
    TITLE "12:cjc171_04877"
    INDEX 01 17:29:00
  TRACK 755 AUDIO
    TITLE "0:"
    INDEX 01 17:32:22
  TRACK 756 AUDIO
    TITLE "13:cjc171_04878"
    INDEX 01 17:33:20
  TRACK 757 AUDIO
    TITLE "0:"
    INDEX 01 17:35:52
  TRACK 758 AUDIO
    TITLE "14:cjc171_04879"
    INDEX 01 17:36:12
  TRACK 759 AUDIO
    TITLE "0:"
    INDEX 01 17:38:42
  TRACK 760 AUDIO
    TITLE "15:cjc171_04880"
    INDEX 01 17:38:62
  TRACK 761 AUDIO
    TITLE "0:"
    INDEX 01 17:41:17
  TRACK 762 AUDIO
    TITLE "11:cjc171_04881"
    INDEX 01 17:42:13
  TRACK 763 AUDIO
    TITLE "0:"
    INDEX 01 17:43:28
  TRACK 764 AUDIO
    TITLE "12:cjc171_04882"
    INDEX 01 17:43:65
  TRACK 765 AUDIO
    TITLE "0:"
    INDEX 01 17:46:24
  TRACK 766 AUDIO
    TITLE "13:cjc171_04883"
    INDEX 01 17:47:26
  TRACK 767 AUDIO
    TITLE "0:"
    INDEX 01 17:50:14
  TRACK 768 AUDIO
    TITLE "14:cjc171_04884"
    INDEX 01 17:50:48
  TRACK 769 AUDIO
    TITLE "0:"
    INDEX 01 17:53:05
  TRACK 770 AUDIO
    TITLE "15:cjc171_04885"
    INDEX 01 17:53:32
  TRACK 771 AUDIO
    TITLE "0:"
    INDEX 01 17:55:63
  TRACK 772 AUDIO
    TITLE "11:cjc171_04886"
    INDEX 01 17:56:68
  TRACK 773 AUDIO
    TITLE "0:"
    INDEX 01 17:58:00
  TRACK 774 AUDIO
    TITLE "12:cjc171_04887"
    INDEX 01 17:58:35
  TRACK 775 AUDIO
    TITLE "0:"
    INDEX 01 17:59:66
  TRACK 776 AUDIO
    TITLE "13:cjc171_04888"
    INDEX 01 18:00:68
  TRACK 777 AUDIO
    TITLE "0:"
    INDEX 01 18:03:11
  TRACK 778 AUDIO
    TITLE "14:cjc171_04889"
    INDEX 01 18:03:46
  TRACK 779 AUDIO
    TITLE "0:"
    INDEX 01 18:05:49
  TRACK 780 AUDIO
    TITLE "15:cjc171_04890"
    INDEX 01 18:06:00
  TRACK 781 AUDIO
    TITLE "0:"
    INDEX 01 18:08:01
  TRACK 782 AUDIO
    TITLE "11:cjc171_04891"
    INDEX 01 18:09:00
  TRACK 783 AUDIO
    TITLE "0:"
    INDEX 01 18:10:21
  TRACK 784 AUDIO
    TITLE "12:cjc171_04892"
    INDEX 01 18:10:58
  TRACK 785 AUDIO
    TITLE "0:"
    INDEX 01 18:13:31
  TRACK 786 AUDIO
    TITLE "13:cjc171_04893"
    INDEX 01 18:14:25
  TRACK 787 AUDIO
    TITLE "0:"
    INDEX 01 18:17:05
  TRACK 788 AUDIO
    TITLE "14:cjc171_04894"
    INDEX 01 18:17:41
  TRACK 789 AUDIO
    TITLE "0:"
    INDEX 01 18:20:13
  TRACK 790 AUDIO
    TITLE "15:cjc171_04895"
    INDEX 01 18:20:33
  TRACK 791 AUDIO
    TITLE "0:"
    INDEX 01 18:23:06
  TRACK 792 AUDIO
    TITLE "11:cjc171_04896"
    INDEX 01 18:24:00
  TRACK 793 AUDIO
    TITLE "0:"
    INDEX 01 18:25:17
  TRACK 794 AUDIO
    TITLE "12:cjc171_04897"
    INDEX 01 18:25:52
  TRACK 795 AUDIO
    TITLE "0:"
    INDEX 01 18:27:68
  TRACK 796 AUDIO
    TITLE "13:cjc171_04898"
    INDEX 01 18:28:70
  TRACK 797 AUDIO
    TITLE "0:"
    INDEX 01 18:30:45
  TRACK 798 AUDIO
    TITLE "14:cjc171_04899"
    INDEX 01 18:31:05
  TRACK 799 AUDIO
    TITLE "0:"
    INDEX 01 18:33:04
  TRACK 800 AUDIO
    TITLE "15:cjc171_04900"
    INDEX 01 18:33:28
  TRACK 801 AUDIO
    TITLE "0:"
    INDEX 01 18:35:27
  TRACK 802 AUDIO
    TITLE "11:cjc171_04901"
    INDEX 01 18:36:22
  TRACK 803 AUDIO
    TITLE "0:"
    INDEX 01 18:37:43
  TRACK 804 AUDIO
    TITLE "12:cjc171_04902"
    INDEX 01 18:38:02
  TRACK 805 AUDIO
    TITLE "0:"
    INDEX 01 18:40:42
  TRACK 806 AUDIO
    TITLE "13:cjc171_04903"
    INDEX 01 18:41:39
  TRACK 807 AUDIO
    TITLE "0:"
    INDEX 01 18:44:20
  TRACK 808 AUDIO
    TITLE "14:cjc171_04904"
    INDEX 01 18:44:59
  TRACK 809 AUDIO
    TITLE "0:"
    INDEX 01 18:47:08
  TRACK 810 AUDIO
    TITLE "15:cjc171_04905"
    INDEX 01 18:47:38
  TRACK 811 AUDIO
    TITLE "0:"
    INDEX 01 18:49:62
  TRACK 812 AUDIO
    TITLE "11:cjc171_04906"
    INDEX 01 18:50:64
  TRACK 813 AUDIO
    TITLE "0:"
    INDEX 01 18:51:73
  TRACK 814 AUDIO
    TITLE "12:cjc171_04907"
    INDEX 01 18:52:37
  TRACK 815 AUDIO
    TITLE "0:"
    INDEX 01 18:54:54
  TRACK 816 AUDIO
    TITLE "13:cjc171_04908"
    INDEX 01 18:55:55
  TRACK 817 AUDIO
    TITLE "0:"
    INDEX 01 18:57:30
  TRACK 818 AUDIO
    TITLE "14:cjc171_04909"
    INDEX 01 18:57:70
  TRACK 819 AUDIO
    TITLE "0:"
    INDEX 01 18:59:55
  TRACK 820 AUDIO
    TITLE "15:cjc171_04910"
    INDEX 01 19:00:07
  TRACK 821 AUDIO
    TITLE "0:"
    INDEX 01 19:01:67
  TRACK 822 AUDIO
    TITLE "11:cjc171_04911"
    INDEX 01 19:02:71
  TRACK 823 AUDIO
    TITLE "0:"
    INDEX 01 19:04:30
  TRACK 824 AUDIO
    TITLE "12:cjc171_04912"
    INDEX 01 19:04:70
  TRACK 825 AUDIO
    TITLE "0:"
    INDEX 01 19:06:49
  TRACK 826 AUDIO
    TITLE "13:cjc171_04913"
    INDEX 01 19:07:46
  TRACK 827 AUDIO
    TITLE "0:"
    INDEX 01 19:09:18
  TRACK 828 AUDIO
    TITLE "14:cjc171_04914"
    INDEX 01 19:09:59
  TRACK 829 AUDIO
    TITLE "0:"
    INDEX 01 19:11:68
  TRACK 830 AUDIO
    TITLE "15:cjc171_04915"
    INDEX 01 19:12:24
  TRACK 831 AUDIO
    TITLE "0:"
    INDEX 01 19:14:31
  TRACK 832 AUDIO
    TITLE "11:cjc171_04916"
    INDEX 01 19:15:38
  TRACK 833 AUDIO
    TITLE "0:"
    INDEX 01 19:16:39
  TRACK 834 AUDIO
    TITLE "12:cjc171_04917"
    INDEX 01 19:17:06
  TRACK 835 AUDIO
    TITLE "0:"
    INDEX 01 19:19:67
  TRACK 836 AUDIO
    TITLE "13:cjc171_04918"
    INDEX 01 19:20:67
  TRACK 837 AUDIO
    TITLE "0:"
    INDEX 01 19:23:20
  TRACK 838 AUDIO
    TITLE "14:cjc171_04919"
    INDEX 01 19:23:59
  TRACK 839 AUDIO
    TITLE "0:"
    INDEX 01 19:25:48
  TRACK 840 AUDIO
    TITLE "15:cjc171_04920"
    INDEX 01 19:26:05
  TRACK 841 AUDIO
    TITLE "0:"
    INDEX 01 19:27:67
  TRACK 842 AUDIO
    TITLE "11:cjc171_04921"
    INDEX 01 19:28:70
  TRACK 843 AUDIO
    TITLE "0:"
    INDEX 01 19:30:24
  TRACK 844 AUDIO
    TITLE "12:cjc171_04922"
    INDEX 01 19:30:63
  TRACK 845 AUDIO
    TITLE "0:"
    INDEX 01 19:33:14
  TRACK 846 AUDIO
    TITLE "13:cjc171_04923"
    INDEX 01 19:34:14
  TRACK 847 AUDIO
    TITLE "0:"
    INDEX 01 19:36:23
  TRACK 848 AUDIO
    TITLE "14:cjc171_04924"
    INDEX 01 19:36:64
  TRACK 849 AUDIO
    TITLE "0:"
    INDEX 01 19:38:70
  TRACK 850 AUDIO
    TITLE "15:cjc171_04925"
    INDEX 01 19:39:25
  TRACK 851 AUDIO
    TITLE "0:"
    INDEX 01 19:41:32
  TRACK 852 AUDIO
    TITLE "11:cjc171_04926"
    INDEX 01 19:42:37
  TRACK 853 AUDIO
    TITLE "0:"
    INDEX 01 19:43:56
  TRACK 854 AUDIO
    TITLE "12:cjc171_04927"
    INDEX 01 19:44:20
  TRACK 855 AUDIO
    TITLE "0:"
    INDEX 01 19:46:62
  TRACK 856 AUDIO
    TITLE "13:cjc171_04928"
    INDEX 01 19:47:62
  TRACK 857 AUDIO
    TITLE "0:"
    INDEX 01 19:49:25
  TRACK 858 AUDIO
    TITLE "14:cjc171_04929"
    INDEX 01 19:49:66
  TRACK 859 AUDIO
    TITLE "0:"
    INDEX 01 19:51:55
  TRACK 860 AUDIO
    TITLE "15:cjc171_04930"
    INDEX 01 19:52:10
  TRACK 861 AUDIO
    TITLE "0:"
    INDEX 01 19:54:01
  TRACK 862 AUDIO
    TITLE "11:cjc171_04931"
    INDEX 01 19:55:04
  TRACK 863 AUDIO
    TITLE "0:"
    INDEX 01 19:56:27
  TRACK 864 AUDIO
    TITLE "12:cjc171_04932"
    INDEX 01 19:56:68
  TRACK 865 AUDIO
    TITLE "0:"
    INDEX 01 19:59:29
  TRACK 866 AUDIO
    TITLE "13:cjc171_04933"
    INDEX 01 20:00:27
  TRACK 867 AUDIO
    TITLE "0:"
    INDEX 01 20:02:28
  TRACK 868 AUDIO
    TITLE "14:cjc171_04934"
    INDEX 01 20:02:67
  TRACK 869 AUDIO
    TITLE "0:"
    INDEX 01 20:05:32
  TRACK 870 AUDIO
    TITLE "15:cjc171_04935"
    INDEX 01 20:05:61
  TRACK 871 AUDIO
    TITLE "0:"
    INDEX 01 20:08:28
  TRACK 872 AUDIO
    TITLE "11:cjc171_04936"
    INDEX 01 20:09:34
  TRACK 873 AUDIO
    TITLE "0:"
    INDEX 01 20:10:47
  TRACK 874 AUDIO
    TITLE "12:cjc171_04937"
    INDEX 01 20:11:13
  TRACK 875 AUDIO
    TITLE "0:"
    INDEX 01 20:14:00
  TRACK 876 AUDIO
    TITLE "13:cjc171_04938"
    INDEX 01 20:14:74
  TRACK 877 AUDIO
    TITLE "0:"
    INDEX 01 20:16:65
  TRACK 878 AUDIO
    TITLE "14:cjc171_04939"
    INDEX 01 20:17:29
  TRACK 879 AUDIO
    TITLE "0:"
    INDEX 01 20:19:18
  TRACK 880 AUDIO
    TITLE "15:cjc171_04940"
    INDEX 01 20:19:50
  TRACK 881 AUDIO
    TITLE "0:"
    INDEX 01 20:21:41
  TRACK 882 AUDIO
    TITLE "11:cjc171_04941"
    INDEX 01 20:22:44
  TRACK 883 AUDIO
    TITLE "0:"
    INDEX 01 20:24:02
  TRACK 884 AUDIO
    TITLE "12:cjc171_04942"
    INDEX 01 20:24:39
  TRACK 885 AUDIO
    TITLE "0:"
    INDEX 01 20:27:32
  TRACK 886 AUDIO
    TITLE "13:cjc171_04943"
    INDEX 01 20:28:35
  TRACK 887 AUDIO
    TITLE "0:"
    INDEX 01 20:30:48
  TRACK 888 AUDIO
    TITLE "14:cjc171_04944"
    INDEX 01 20:31:12
  TRACK 889 AUDIO
    TITLE "0:"
    INDEX 01 20:33:36
  TRACK 890 AUDIO
    TITLE "15:cjc171_04945"
    INDEX 01 20:33:66
  TRACK 891 AUDIO
    TITLE "0:"
    INDEX 01 20:36:13
  TRACK 892 AUDIO
    TITLE "11:cjc171_04946"
    INDEX 01 20:37:18
  TRACK 893 AUDIO
    TITLE "0:"
    INDEX 01 20:38:31
  TRACK 894 AUDIO
    TITLE "12:cjc171_04947"
    INDEX 01 20:38:69
  TRACK 895 AUDIO
    TITLE "0:"
    INDEX 01 20:41:40
  TRACK 896 AUDIO
    TITLE "13:cjc171_04948"
    INDEX 01 20:42:39
  TRACK 897 AUDIO
    TITLE "0:"
    INDEX 01 20:44:26
  TRACK 898 AUDIO
    TITLE "14:cjc171_04949"
    INDEX 01 20:44:65
  TRACK 899 AUDIO
    TITLE "0:"
    INDEX 01 20:46:45
  TRACK 900 AUDIO
    TITLE "15:cjc171_04950"
    INDEX 01 20:46:74
  TRACK 901 AUDIO
    TITLE "0:"
    INDEX 01 20:48:53
  TRACK 902 AUDIO
    TITLE "11:cjc171_04951"
    INDEX 01 20:49:55
  TRACK 903 AUDIO
    TITLE "0:"
    INDEX 01 20:50:62
  TRACK 904 AUDIO
    TITLE "12:cjc171_04952"
    INDEX 01 20:51:22
  TRACK 905 AUDIO
    TITLE "0:"
    INDEX 01 20:52:30
  TRACK 906 AUDIO
    TITLE "13:cjc171_04953"
    INDEX 01 20:53:31
  TRACK 907 AUDIO
    TITLE "0:"
    INDEX 01 20:56:04
  TRACK 908 AUDIO
    TITLE "14:cjc171_04954"
    INDEX 01 20:56:45
  TRACK 909 AUDIO
    TITLE "0:"
    INDEX 01 20:59:41
  TRACK 910 AUDIO
    TITLE "15:cjc171_04955"
    INDEX 01 20:59:67
  TRACK 911 AUDIO
    TITLE "0:"
    INDEX 01 21:02:63
  TRACK 912 AUDIO
    TITLE "11:cjc171_04956"
    INDEX 01 21:03:59
  TRACK 913 AUDIO
    TITLE "0:"
    INDEX 01 21:05:03
  TRACK 914 AUDIO
    TITLE "12:cjc171_04957"
    INDEX 01 21:05:40
  TRACK 915 AUDIO
    TITLE "0:"
    INDEX 01 21:06:53
  TRACK 916 AUDIO
    TITLE "13:cjc171_04958"
    INDEX 01 21:07:53
  TRACK 917 AUDIO
    TITLE "0:"
    INDEX 01 21:09:71
  TRACK 918 AUDIO
    TITLE "14:cjc171_04959"
    INDEX 01 21:10:30
  TRACK 919 AUDIO
    TITLE "0:"
    INDEX 01 21:12:44
  TRACK 920 AUDIO
    TITLE "15:cjc171_04960"
    INDEX 01 21:12:66
  TRACK 921 AUDIO
    TITLE "0:"
    INDEX 01 21:15:03
  TRACK 922 AUDIO
    TITLE "11:cjc171_04961"
    INDEX 01 21:15:74
  TRACK 923 AUDIO
    TITLE "0:"
    INDEX 01 21:17:04
  TRACK 924 AUDIO
    TITLE "12:cjc171_04962"
    INDEX 01 21:17:39
  TRACK 925 AUDIO
    TITLE "0:"
    INDEX 01 21:18:68
  TRACK 926 AUDIO
    TITLE "13:cjc171_04963"
    INDEX 01 21:19:68
  TRACK 927 AUDIO
    TITLE "0:"
    INDEX 01 21:21:61
  TRACK 928 AUDIO
    TITLE "14:cjc171_04964"
    INDEX 01 21:22:17
  TRACK 929 AUDIO
    TITLE "0:"
    INDEX 01 21:23:69
  TRACK 930 AUDIO
    TITLE "15:cjc171_04965"
    INDEX 01 21:24:16
  TRACK 931 AUDIO
    TITLE "0:"
    INDEX 01 21:25:66
  TRACK 932 AUDIO
    TITLE "11:cjc171_04966"
    INDEX 01 21:26:64
  TRACK 933 AUDIO
    TITLE "0:"
    INDEX 01 21:28:02
  TRACK 934 AUDIO
    TITLE "12:cjc171_04967"
    INDEX 01 21:28:43
  TRACK 935 AUDIO
    TITLE "0:"
    INDEX 01 21:30:13
  TRACK 936 AUDIO
    TITLE "13:cjc171_04968"
    INDEX 01 21:31:12
  TRACK 937 AUDIO
    TITLE "0:"
    INDEX 01 21:33:44
  TRACK 938 AUDIO
    TITLE "14:cjc171_04969"
    INDEX 01 21:34:03
  TRACK 939 AUDIO
    TITLE "0:"
    INDEX 01 21:36:58
  TRACK 940 AUDIO
    TITLE "15:cjc171_04970"
    INDEX 01 21:37:05
  TRACK 941 AUDIO
    TITLE "0:"
    INDEX 01 21:39:61
  TRACK 942 AUDIO
    TITLE "11:cjc171_04971"
    INDEX 01 21:40:56
  TRACK 943 AUDIO
    TITLE "0:"
    INDEX 01 21:41:67
  TRACK 944 AUDIO
    TITLE "12:cjc171_04972"
    INDEX 01 21:42:30
  TRACK 945 AUDIO
    TITLE "0:"
    INDEX 01 21:44:52
  TRACK 946 AUDIO
    TITLE "13:cjc171_04973"
    INDEX 01 21:45:49
  TRACK 947 AUDIO
    TITLE "0:"
    INDEX 01 21:47:68
  TRACK 948 AUDIO
    TITLE "14:cjc171_04974"
    INDEX 01 21:48:26
  TRACK 949 AUDIO
    TITLE "0:"
    INDEX 01 21:50:37
  TRACK 950 AUDIO
    TITLE "15:cjc171_04975"
    INDEX 01 21:50:56
  TRACK 951 AUDIO
    TITLE "0:"
    INDEX 01 21:52:67
  TRACK 952 AUDIO
    TITLE "11:cjc171_04976"
    INDEX 01 21:53:65
  TRACK 953 AUDIO
    TITLE "0:"
    INDEX 01 21:54:64
  TRACK 954 AUDIO
    TITLE "12:cjc171_04977"
    INDEX 01 21:55:24
  TRACK 955 AUDIO
    TITLE "0:"
    INDEX 01 21:57:37
  TRACK 956 AUDIO
    TITLE "13:cjc171_04978"
    INDEX 01 21:58:38
  TRACK 957 AUDIO
    TITLE "0:"
    INDEX 01 22:00:06
  TRACK 958 AUDIO
    TITLE "14:cjc171_04979"
    INDEX 01 22:00:41
  TRACK 959 AUDIO
    TITLE "0:"
    INDEX 01 22:02:46
  TRACK 960 AUDIO
    TITLE "15:cjc171_04980"
    INDEX 01 22:02:64
  TRACK 961 AUDIO
    TITLE "0:"
    INDEX 01 22:04:70
  TRACK 962 AUDIO
    TITLE "11:cjc171_04981"
    INDEX 01 22:05:70
  TRACK 963 AUDIO
    TITLE "0:"
    INDEX 01 22:07:02
  TRACK 964 AUDIO
    TITLE "12:cjc171_04982"
    INDEX 01 22:07:35
  TRACK 965 AUDIO
    TITLE "0:"
    INDEX 01 22:10:14
  TRACK 966 AUDIO
    TITLE "13:cjc171_04983"
    INDEX 01 22:11:16
  TRACK 967 AUDIO
    TITLE "0:"
    INDEX 01 22:13:59
  TRACK 968 AUDIO
    TITLE "14:cjc171_04984"
    INDEX 01 22:14:20
  TRACK 969 AUDIO
    TITLE "0:"
    INDEX 01 22:16:50
  TRACK 970 AUDIO
    TITLE "15:cjc171_04985"
    INDEX 01 22:16:72
  TRACK 971 AUDIO
    TITLE "0:"
    INDEX 01 22:19:27
  TRACK 972 AUDIO
    TITLE "11:cjc171_04986"
    INDEX 01 22:20:24
  TRACK 973 AUDIO
    TITLE "0:"
    INDEX 01 22:21:22
  TRACK 974 AUDIO
    TITLE "12:cjc171_04987"
    INDEX 01 22:21:57
  TRACK 975 AUDIO
    TITLE "0:"
    INDEX 01 22:24:48
  TRACK 976 AUDIO
    TITLE "13:cjc171_04988"
    INDEX 01 22:25:47
  TRACK 977 AUDIO
    TITLE "0:"
    INDEX 01 22:28:00
  TRACK 978 AUDIO
    TITLE "14:cjc171_04989"
    INDEX 01 22:28:34
  TRACK 979 AUDIO
    TITLE "0:"
    INDEX 01 22:30:58
  TRACK 980 AUDIO
    TITLE "15:cjc171_04990"
    INDEX 01 22:31:03
  TRACK 981 AUDIO
    TITLE "0:"
    INDEX 01 22:33:25
  TRACK 982 AUDIO
    TITLE "11:cjc171_04991"
    INDEX 01 22:34:20
  TRACK 983 AUDIO
    TITLE "0:"
    INDEX 01 22:35:28
  TRACK 984 AUDIO
    TITLE "12:cjc171_04992"
    INDEX 01 22:35:65
  TRACK 985 AUDIO
    TITLE "0:"
    INDEX 01 22:38:01
  TRACK 986 AUDIO
    TITLE "13:cjc171_04993"
    INDEX 01 22:39:00
  TRACK 987 AUDIO
    TITLE "0:"
    INDEX 01 22:41:24
  TRACK 988 AUDIO
    TITLE "14:cjc171_04994"
    INDEX 01 22:41:60
  TRACK 989 AUDIO
    TITLE "0:"
    INDEX 01 22:44:15
  TRACK 990 AUDIO
    TITLE "15:cjc171_04995"
    INDEX 01 22:44:35
  TRACK 991 AUDIO
    TITLE "0:"
    INDEX 01 22:46:67
  TRACK 992 AUDIO
    TITLE "11:cjc171_04996"
    INDEX 01 22:47:62
  TRACK 993 AUDIO
    TITLE "0:"
    INDEX 01 22:49:02
  TRACK 994 AUDIO
    TITLE "12:cjc171_04997"
    INDEX 01 22:49:45
  TRACK 995 AUDIO
    TITLE "0:"
    INDEX 01 22:52:14
  TRACK 996 AUDIO
    TITLE "13:cjc171_04998"
    INDEX 01 22:53:16
  TRACK 997 AUDIO
    TITLE "0:"
    INDEX 01 22:55:01
  TRACK 998 AUDIO
    TITLE "14:cjc171_04999"
    INDEX 01 22:55:34
  TRACK 999 AUDIO
    TITLE "0:"
    INDEX 01 22:57:29
  TRACK 1000 AUDIO
    TITLE "15:cjc171_05000"
    INDEX 01 22:57:49
  TRACK 1001 AUDIO
    TITLE "0:"
    INDEX 01 22:59:44
